# xmcd
#
# Track frame offsets: 
#        150
#        11129
#        22289
#        34504
#        49356
#        61703
#        75214
#        88572
#        101578
#        113842
#        127023
#        138445
#        150301
#        165163
#
# Disc length: 2338 seconds
#
# Revision: 0
# Processed by: cddbd v1.5.2PL0 Copyright (c) Steve Scherf et al.
# Submitted via: ExactAudioCopyFreeDBPlugin 1.0
#
DISCID=a309200e
DTITLE=The Country Side Of Harmonica Sam - Broken Bottle, Broken Heart
DYEAR=2019
DGENRE=Country
TTITLE0=My First Broken Heart (Since My Last Broken Heart)
TTITLE1=How Can I Love You
TTITLE2=I've Been Draggin' Since You've Gone
TTITLE3=Losing A Girl You Never Had
TTITLE4=I'll Leave The Front Door Open
TTITLE5=Stepping Out
TTITLE6=Cry Baby
TTITLE7=Broken Bottle, Broken Heart
TTITLE8=I Drink Because I Care
TTITLE9=If That's The Way It's Gotta Be
TTITLE10=Empty House
TTITLE11=Why Me
TTITLE12=Waiting For A Sunny Day
TTITLE13=Patches On My Heart
EXTD=
EXTT0=
EXTT1=
EXTT2=
EXTT3=
EXTT4=
EXTT5=
EXTT6=
EXTT7=
EXTT8=
EXTT9=
EXTT10=
EXTT11=
EXTT12=
EXTT13=
PLAYORDER=
